<svg width="36" height="43" viewBox="0 0 36 43" fill="none" xmlns="http://www.w3.org/2000/svg">
<g id="electrician">
<path id="Path 396" d="M23.121 23.12C22.6437 23.5189 22.1332 23.8762 21.595 24.188L20.069 25.027C19.067 25.5898 17.9372 25.8853 16.788 25.8853C15.6388 25.8853 14.5089 25.5898 13.507 25.027L11.981 24.188C11.4424 23.8762 10.9316 23.5189 10.454 23.12L8.46997 24.42L11.751 26.175C13.3146 27.0019 15.0566 27.4341 16.8255 27.4341C18.5943 27.4341 20.3363 27.0019 21.9 26.175L25.257 24.42L23.121 23.12Z" fill="black"/>
<path id="Path 397" d="M7.09303 10.683H26.554C26.796 10.6799 27.0272 10.5824 27.1983 10.4113C27.3694 10.2402 27.4669 10.009 27.47 9.767C27.4766 9.55898 27.4122 9.35493 27.2873 9.18843C27.1624 9.02193 26.9846 8.90292 26.783 8.851L25.181 8.394H8.54603L6.86703 8.776C6.74358 8.80033 6.6266 8.85027 6.52364 8.92261C6.42069 8.99495 6.33405 9.08807 6.26931 9.19597C6.20457 9.30386 6.16318 9.42413 6.1478 9.54902C6.13242 9.6739 6.1434 9.80062 6.18003 9.921C6.23607 10.1267 6.354 10.3103 6.51785 10.4468C6.6817 10.5833 6.88354 10.6661 7.09603 10.684L7.09303 10.683Z" fill="black"/>
<path id="Path 398" d="M24.494 31.285V26.554L22.968 27.317V31.285H24.494Z" fill="black"/>
<path id="Path 399" d="M26.02 25.715V31.285C26.4567 31.283 26.8833 31.4164 27.241 31.667C27.8852 30.9134 28.724 30.3512 29.6658 30.0417C30.6077 29.7323 31.6164 29.6874 32.582 29.912C31.9789 28.7746 31.0485 27.8441 29.911 27.241L26.783 25.333L26.02 25.715Z" fill="black"/>
<path id="Path 400" d="M19.763 1.679H19.458L19.916 5.265L18.39 5.418L17.78 0.687C17.7515 0.501881 17.6599 0.33231 17.5206 0.207081C17.3814 0.0818512 17.2031 0.00868291 17.016 0H16.633C16.4461 0.00890768 16.268 0.082177 16.1289 0.207387C15.9899 0.332597 15.8984 0.502043 15.87 0.687L15.333 5.418L13.807 5.265L14.265 1.679H13.96C12.6782 1.8266 11.4932 2.43338 10.6242 3.38713C9.75521 4.34087 9.26099 5.57704 9.23297 6.867H24.494C24.4658 5.57643 23.971 4.33976 23.1012 3.38592C22.2314 2.43209 21.0455 1.8257 19.763 1.679Z" fill="#EF4637"/>
<path id="Path 401" d="M12.285 28.08V31.28H21.442V28.08C19.9913 28.6847 18.4352 28.996 16.8635 28.996C15.2918 28.996 13.7357 28.6847 12.285 28.08Z" fill="black"/>
<path id="Path 402" d="M26.02 15.338V14.88C26.0126 14.5786 25.8897 14.2917 25.6765 14.0785C25.4633 13.8654 25.1764 13.7424 24.875 13.735H24.493V12.209H9.233V13.735H8.851C8.54982 13.7426 8.26309 13.8657 8.05015 14.0788C7.83721 14.292 7.71435 14.5788 7.70701 14.88V15.338C7.70278 15.5853 7.7839 15.8266 7.93672 16.0211C8.08953 16.2156 8.3047 16.3516 8.54601 16.406L9.233 16.559V16.788C9.23466 18.0221 9.56849 19.2331 10.1995 20.2937C10.8304 21.3543 11.7353 22.2256 12.819 22.816L14.345 23.655C15.1334 24.0688 16.0106 24.285 16.901 24.285C17.7914 24.285 18.6686 24.0688 19.457 23.655L20.983 22.816C22.0668 22.2256 22.9716 21.3543 23.6026 20.2937C24.2335 19.2331 24.5673 18.0221 24.569 16.788V16.559L25.256 16.406C25.4811 16.3336 25.6768 16.1906 25.8143 15.9983C25.9517 15.8059 26.0235 15.5744 26.019 15.338H26.02Z" fill="black"/>
<path id="Path 403" d="M29.835 41.968C29.8289 42.0698 29.8444 42.1718 29.8806 42.2671C29.9168 42.3624 29.9727 42.449 30.0449 42.5211C30.117 42.5933 30.2036 42.6492 30.2989 42.6854C30.3942 42.7216 30.4962 42.7371 30.598 42.731H32.124C32.2258 42.7371 32.3277 42.7216 32.4231 42.6854C32.5184 42.6492 32.605 42.5933 32.6771 42.5211C32.7492 42.449 32.8052 42.3624 32.8414 42.2671C32.8776 42.1718 32.8931 42.0698 32.887 41.968V40.442H29.835V41.968Z" fill="black"/>
<path id="Path 404" d="M10.759 31.285V27.317L9.23297 26.554V31.285H10.759Z" fill="black"/>
<path id="Path 405" d="M28.309 40.06C27.6061 39.5723 27.0311 38.9225 26.6326 38.1654C26.2342 37.4084 26.024 36.5665 26.02 35.711V35.101C26.0171 34.364 26.1733 33.6351 26.478 32.964C26.3388 32.8792 26.1822 32.8269 26.02 32.811H7.70699C7.60519 32.8049 7.50326 32.8204 7.40791 32.8566C7.31256 32.8928 7.22598 32.9488 7.15386 33.0209C7.08175 33.093 7.02576 33.1796 6.98958 33.2749C6.9534 33.3703 6.93786 33.4722 6.94399 33.574V42.731H28.462C28.3746 42.4853 28.323 42.2284 28.309 41.968V40.06ZM21.289 41.66L20.068 40.744L21.668 38.607L18.616 37.844L21.592 33.876L22.813 34.792L21.213 36.929L24.265 37.692L21.289 41.66Z" fill="#EF4637"/>
<path id="Path 406" d="M31.361 31.285C30.8587 31.2801 30.3603 31.3754 29.8953 31.5653C29.4302 31.7553 29.0076 32.0361 28.6524 32.3914C28.2971 32.7466 28.0163 33.1691 27.8263 33.6342C27.6364 34.0993 27.5411 34.5976 27.546 35.1V35.71C27.545 36.3396 27.6973 36.96 27.9899 37.5176C28.2824 38.0751 28.7064 38.553 29.225 38.91L29.301 38.986H30.601V36.245L29.301 34.945L30.369 33.877L31.361 34.869L32.353 33.877L33.421 34.945L32.121 36.166V38.913H33.421L33.497 38.837C34.0219 38.4863 34.4505 38.0097 34.7438 37.4507C35.0371 36.8917 35.1857 36.2682 35.176 35.637V35.103C35.1814 34.6004 35.0864 34.1018 34.8966 33.6363C34.7068 33.1709 34.426 32.748 34.0707 32.3924C33.7154 32.0369 33.2928 31.7558 32.8275 31.5656C32.3622 31.3754 31.8636 31.2801 31.361 31.285Z" fill="black"/>
<path id="Path 407" d="M7.707 25.715L6.944 25.333L3.744 27.241C2.62113 27.9346 1.69008 28.8987 1.03602 30.045C0.381954 31.1914 0.0257546 32.4834 0 33.803V42.733H5.341V33.574C5.33544 33.2719 5.39084 32.9717 5.50391 32.6915C5.61697 32.4113 5.78537 32.1567 5.99904 31.9431C6.21272 31.7294 6.46727 31.561 6.7475 31.4479C7.02773 31.3349 7.32788 31.2794 7.63 31.285V25.715H7.707Z" fill="black"/>
</g>
</svg>
